#usda 1.0
(
    customLayerData = {
        string calibration = "unverified"
        int episode = 1
        string fidelity = "RGB fit under assumed metric scale; not a measured replica"
        string profile = "episode-001.json"
    }
    defaultPrim = "World"
    endTimeCode = 150
    framesPerSecond = 30
    metersPerUnit = 1
    startTimeCode = 0
    subLayers = [
        @scene.usda@
    ]
    timeCodesPerSecond = 30
    upAxis = "Z"
)

over "World"
{
    def Xform "Props"
    {
        def Xform "Cup" (
            prepend apiSchemas = ["PhysicsRigidBodyAPI", "PhysicsMassAPI", "MaterialBindingAPI"]
        )
        {
            rel material:binding:physics = </World/Materials/CupContact>
            point3f physics:centerOfMass = (0, 0, 0.0510992)
            float3 physics:diagonalInertia = (0.00001763204, 0.00001763204, 0.000014375056)
            float physics:mass = 0.012
            quatf physics:principalAxes = (1, 0, 0, 0)
            double3 xformOp:translate = (-0.2247814, -0.0291302, 0.2005)
            uniform token[] xformOpOrder = ["xformOp:translate"]

            def Mesh "Paper" (
                prepend apiSchemas = ["MaterialBindingAPI"]
            )
            {
                uniform bool doubleSided = 1
                float3[] extent = [(-0.0415697, -0.0415697, 0), (0.0415697, 0.0415697, 0.1021984)]
                int[] faceVertexCounts = [4, 4, 4, 4, 4, 4, 4, 4, 4, 4, 4, 4, 4, 4, 4, 4, 4, 4, 4, 4, 4, 4, 4, 4, 4, 4, 4, 4, 4, 4, 4, 4, 4, 4, 4, 4, 4, 4, 4, 4, 4, 4, 4, 4, 4, 4, 4, 4, 4, 4, 4, 4, 4, 4, 4, 4, 4, 4, 4, 4, 4, 4, 4, 4, 4, 4, 4, 4, 4, 4, 4, 4, 4, 4, 4, 4, 4, 4, 4, 4, 4, 4, 4, 4, 4, 4, 4, 4, 4, 4, 4, 4, 4, 4, 4, 4, 4, 4, 4, 4, 4, 4, 4, 4, 4, 4, 4, 4, 4, 4, 4, 4, 4, 4, 4, 4, 4, 4, 4, 4, 4, 4, 4, 4, 4, 4, 4, 4, 4, 4, 4, 4, 4, 4, 4, 4, 4, 4, 4, 4, 4, 4, 4, 4, 4, 4, 4, 4, 4, 4, 4, 4, 4, 4, 4, 4, 4, 4, 4, 4, 4, 4, 4, 4, 4, 4, 4, 4, 4, 4, 4, 4, 4, 4, 4, 4, 4, 4, 4, 4, 4, 4, 4, 4, 4, 4, 4, 4, 4, 4, 4, 4, 64]
                int[] faceVertexIndices = [0, 1, 65, 64, 1, 2, 66, 65, 2, 3, 67, 66, 3, 4, 68, 67, 4, 5, 69, 68, 5, 6, 70, 69, 6, 7, 71, 70, 7, 8, 72, 71, 8, 9, 73, 72, 9, 10, 74, 73, 10, 11, 75, 74, 11, 12, 76, 75, 12, 13, 77, 76, 13, 14, 78, 77, 14, 15, 79, 78, 15, 16, 80, 79, 16, 17, 81, 80, 17, 18, 82, 81, 18, 19, 83, 82, 19, 20, 84, 83, 20, 21, 85, 84, 21, 22, 86, 85, 22, 23, 87, 86, 23, 24, 88, 87, 24, 25, 89, 88, 25, 26, 90, 89, 26, 27, 91, 90, 27, 28, 92, 91, 28, 29, 93, 92, 29, 30, 94, 93, 30, 31, 95, 94, 31, 32, 96, 95, 32, 33, 97, 96, 33, 34, 98, 97, 34, 35, 99, 98, 35, 36, 100, 99, 36, 37, 101, 100, 37, 38, 102, 101, 38, 39, 103, 102, 39, 40, 104, 103, 40, 41, 105, 104, 41, 42, 106, 105, 42, 43, 107, 106, 43, 44, 108, 107, 44, 45, 109, 108, 45, 46, 110, 109, 46, 47, 111, 110, 47, 48, 112, 111, 48, 49, 113, 112, 49, 50, 114, 113, 50, 51, 115, 114, 51, 52, 116, 115, 52, 53, 117, 116, 53, 54, 118, 117, 54, 55, 119, 118, 55, 56, 120, 119, 56, 57, 121, 120, 57, 58, 122, 121, 58, 59, 123, 122, 59, 60, 124, 123, 60, 61, 125, 124, 61, 62, 126, 125, 62, 63, 127, 126, 63, 0, 64, 127, 64, 65, 129, 128, 65, 66, 130, 129, 66, 67, 131, 130, 67, 68, 132, 131, 68, 69, 133, 132, 69, 70, 134, 133, 70, 71, 135, 134, 71, 72, 136, 135, 72, 73, 137, 136, 73, 74, 138, 137, 74, 75, 139, 138, 75, 76, 140, 139, 76, 77, 141, 140, 77, 78, 142, 141, 78, 79, 143, 142, 79, 80, 144, 143, 80, 81, 145, 144, 81, 82, 146, 145, 82, 83, 147, 146, 83, 84, 148, 147, 84, 85, 149, 148, 85, 86, 150, 149, 86, 87, 151, 150, 87, 88, 152, 151, 88, 89, 153, 152, 89, 90, 154, 153, 90, 91, 155, 154, 91, 92, 156, 155, 92, 93, 157, 156, 93, 94, 158, 157, 94, 95, 159, 158, 95, 96, 160, 159, 96, 97, 161, 160, 97, 98, 162, 161, 98, 99, 163, 162, 99, 100, 164, 163, 100, 101, 165, 164, 101, 102, 166, 165, 102, 103, 167, 166, 103, 104, 168, 167, 104, 105, 169, 168, 105, 106, 170, 169, 106, 107, 171, 170, 107, 108, 172, 171, 108, 109, 173, 172, 109, 110, 174, 173, 110, 111, 175, 174, 111, 112, 176, 175, 112, 113, 177, 176, 113, 114, 178, 177, 114, 115, 179, 178, 115, 116, 180, 179, 116, 117, 181, 180, 117, 118, 182, 181, 118, 119, 183, 182, 119, 120, 184, 183, 120, 121, 185, 184, 121, 122, 186, 185, 122, 123, 187, 186, 123, 124, 188, 187, 124, 125, 189, 188, 125, 126, 190, 189, 126, 127, 191, 190, 127, 64, 128, 191, 128, 129, 193, 192, 129, 130, 194, 193, 130, 131, 195, 194, 131, 132, 196, 195, 132, 133, 197, 196, 133, 134, 198, 197, 134, 135, 199, 198, 135, 136, 200, 199, 136, 137, 201, 200, 137, 138, 202, 201, 138, 139, 203, 202, 139, 140, 204, 203, 140, 141, 205, 204, 141, 142, 206, 205, 142, 143, 207, 206, 143, 144, 208, 207, 144, 145, 209, 208, 145, 146, 210, 209, 146, 147, 211, 210, 147, 148, 212, 211, 148, 149, 213, 212, 149, 150, 214, 213, 150, 151, 215, 214, 151, 152, 216, 215, 152, 153, 217, 216, 153, 154, 218, 217, 154, 155, 219, 218, 155, 156, 220, 219, 156, 157, 221, 220, 157, 158, 222, 221, 158, 159, 223, 222, 159, 160, 224, 223, 160, 161, 225, 224, 161, 162, 226, 225, 162, 163, 227, 226, 163, 164, 228, 227, 164, 165, 229, 228, 165, 166, 230, 229, 166, 167, 231, 230, 167, 168, 232, 231, 168, 169, 233, 232, 169, 170, 234, 233, 170, 171, 235, 234, 171, 172, 236, 235, 172, 173, 237, 236, 173, 174, 238, 237, 174, 175, 239, 238, 175, 176, 240, 239, 176, 177, 241, 240, 177, 178, 242, 241, 178, 179, 243, 242, 179, 180, 244, 243, 180, 181, 245, 244, 181, 182, 246, 245, 182, 183, 247, 246, 183, 184, 248, 247, 184, 185, 249, 248, 185, 186, 250, 249, 186, 187, 251, 250, 187, 188, 252, 251, 188, 189, 253, 252, 189, 190, 254, 253, 190, 191, 255, 254, 191, 128, 192, 255, 192, 193, 194, 195, 196, 197, 198, 199, 200, 201, 202, 203, 204, 205, 206, 207, 208, 209, 210, 211, 212, 213, 214, 215, 216, 217, 218, 219, 220, 221, 222, 223, 224, 225, 226, 227, 228, 229, 230, 231, 232, 233, 234, 235, 236, 237, 238, 239, 240, 241, 242, 243, 244, 245, 246, 247, 248, 249, 250, 251, 252, 253, 254, 255]
                rel material:binding = </World/Materials/Paper>
                point3f[] points = [(0.0276523, 0, 0), (0.027519146, 0.0027103995, 0), (0.027120968, 0.0053946963, 0), (0.026461601, 0.008027039, 0), (0.025547395, 0.010582077, 0), (0.024387151, 0.013035204, 0), (0.022992047, 0.0153627945, 0), (0.021375516, 0.017542433, 0), (0.019553129, 0.019553129, 0), (0.017542433, 0.021375516, 0), (0.0153627945, 0.022992047, 0), (0.013035204, 0.024387151, 0), (0.010582077, 0.025547395, 0), (0.008027039, 0.026461601, 0), (0.0053946963, 0.027120968, 0), (0.0027103995, 0.027519146, 0), (1.693215e-18, 0.0276523, 0), (-0.0027103995, 0.027519146, 0), (-0.0053946963, 0.027120968, 0), (-0.008027039, 0.026461601, 0), (-0.010582077, 0.025547395, 0), (-0.013035204, 0.024387151, 0), (-0.0153627945, 0.022992047, 0), (-0.017542433, 0.021375516, 0), (-0.019553129, 0.019553129, 0), (-0.021375516, 0.017542433, 0), (-0.022992047, 0.0153627945, 0), (-0.024387151, 0.013035204, 0), (-0.025547395, 0.010582077, 0), (-0.026461601, 0.008027039, 0), (-0.027120968, 0.0053946963, 0), (-0.027519146, 0.0027103995, 0), (-0.0276523, 3.38643e-18, 0), (-0.027519146, -0.0027103995, 0), (-0.027120968, -0.0053946963, 0), (-0.026461601, -0.008027039, 0), (-0.025547395, -0.010582077, 0), (-0.024387151, -0.013035204, 0), (-0.022992047, -0.0153627945, 0), (-0.021375516, -0.017542433, 0), (-0.019553129, -0.019553129, 0), (-0.017542433, -0.021375516, 0), (-0.0153627945, -0.022992047, 0), (-0.013035204, -0.024387151, 0), (-0.010582077, -0.025547395, 0), (-0.008027039, -0.026461601, 0), (-0.0053946963, -0.027120968, 0), (-0.0027103995, -0.027519146, 0), (-5.079645e-18, -0.0276523, 0), (0.0027103995, -0.027519146, 0), (0.0053946963, -0.027120968, 0), (0.008027039, -0.026461601, 0), (0.010582077, -0.025547395, 0), (0.013035204, -0.024387151, 0), (0.0153627945, -0.022992047, 0), (0.017542433, -0.021375516, 0), (0.019553129, -0.019553129, 0), (0.021375516, -0.017542433, 0), (0.022992047, -0.0153627945, 0), (0.024387151, -0.013035204, 0), (0.025547395, -0.010582077, 0), (0.026461601, -0.008027039, 0), (0.027120968, -0.0053946963, 0), (0.027519146, -0.0027103995, 0), (0.0415697, 0, 0.1021984), (0.04136953, 0.0040745432, 0.1021984), (0.04077095, 0.008109846, 0.1021984), (0.039779723, 0.012067047, 0.1021984), (0.038405396, 0.015908036, 0.1021984), (0.036661204, 0.01959582, 0.1021984), (0.034563944, 0.023094889, 0.1021984), (0.032133814, 0.026371539, 0.1021984), (0.029394217, 0.029394217, 0.1021984), (0.026371539, 0.032133814, 0.1021984), (0.023094889, 0.034563944, 0.1021984), (0.01959582, 0.036661204, 0.1021984), (0.015908036, 0.038405396, 0.1021984), (0.012067047, 0.039779723, 0.1021984), (0.008109846, 0.04077095, 0.1021984), (0.0040745432, 0.04136953, 0.1021984), (2.54541e-18, 0.0415697, 0.1021984), (-0.0040745432, 0.04136953, 0.1021984), (-0.008109846, 0.04077095, 0.1021984), (-0.012067047, 0.039779723, 0.1021984), (-0.015908036, 0.038405396, 0.1021984), (-0.01959582, 0.036661204, 0.1021984), (-0.023094889, 0.034563944, 0.1021984), (-0.026371539, 0.032133814, 0.1021984), (-0.029394217, 0.029394217, 0.1021984), (-0.032133814, 0.026371539, 0.1021984), (-0.034563944, 0.023094889, 0.1021984), (-0.036661204, 0.01959582, 0.1021984), (-0.038405396, 0.015908036, 0.1021984), (-0.039779723, 0.012067047, 0.1021984), (-0.04077095, 0.008109846, 0.1021984), (-0.04136953, 0.0040745432, 0.1021984), (-0.0415697, 5.09082e-18, 0.1021984), (-0.04136953, -0.0040745432, 0.1021984), (-0.04077095, -0.008109846, 0.1021984), (-0.039779723, -0.012067047, 0.1021984), (-0.038405396, -0.015908036, 0.1021984), (-0.036661204, -0.01959582, 0.1021984), (-0.034563944, -0.023094889, 0.1021984), (-0.032133814, -0.026371539, 0.1021984), (-0.029394217, -0.029394217, 0.1021984), (-0.026371539, -0.032133814, 0.1021984), (-0.023094889, -0.034563944, 0.1021984), (-0.01959582, -0.036661204, 0.1021984), (-0.015908036, -0.038405396, 0.1021984), (-0.012067047, -0.039779723, 0.1021984), (-0.008109846, -0.04077095, 0.1021984), (-0.0040745432, -0.04136953, 0.1021984), (-7.63623e-18, -0.0415697, 0.1021984), (0.0040745432, -0.04136953, 0.1021984), (0.008109846, -0.04077095, 0.1021984), (0.012067047, -0.039779723, 0.1021984), (0.015908036, -0.038405396, 0.1021984), (0.01959582, -0.036661204, 0.1021984), (0.023094889, -0.034563944, 0.1021984), (0.026371539, -0.032133814, 0.1021984), (0.029394217, -0.029394217, 0.1021984), (0.032133814, -0.026371539, 0.1021984), (0.034563944, -0.023094889, 0.1021984), (0.036661204, -0.01959582, 0.1021984), (0.038405396, -0.015908036, 0.1021984), (0.039779723, -0.012067047, 0.1021984), (0.04077095, -0.008109846, 0.1021984), (0.04136953, -0.0040745432, 0.1021984), (0.0403697, 0, 0.1021984), (0.040175308, 0.0039569223, 0.1021984), (0.039594006, 0.007875738, 0.1021984), (0.038631395, 0.011718705, 0.1021984), (0.03729674, 0.015448815, 0.1021984), (0.035602897, 0.019030144, 0.1021984), (0.03356618, 0.022428203, 0.1021984), (0.0312062, 0.025610266, 0.1021984), (0.028545689, 0.028545689, 0.1021984), (0.025610266, 0.0312062, 0.1021984), (0.022428203, 0.03356618, 0.1021984), (0.019030144, 0.035602897, 0.1021984), (0.015448815, 0.03729674, 0.1021984), (0.011718705, 0.038631395, 0.1021984), (0.007875738, 0.039594006, 0.1021984), (0.0039569223, 0.040175308, 0.1021984), (2.4719312e-18, 0.0403697, 0.1021984), (-0.0039569223, 0.040175308, 0.1021984), (-0.007875738, 0.039594006, 0.1021984), (-0.011718705, 0.038631395, 0.1021984), (-0.015448815, 0.03729674, 0.1021984), (-0.019030144, 0.035602897, 0.1021984), (-0.022428203, 0.03356618, 0.1021984), (-0.025610266, 0.0312062, 0.1021984), (-0.028545689, 0.028545689, 0.1021984), (-0.0312062, 0.025610266, 0.1021984), (-0.03356618, 0.022428203, 0.1021984), (-0.035602897, 0.019030144, 0.1021984), (-0.03729674, 0.015448815, 0.1021984), (-0.038631395, 0.011718705, 0.1021984), (-0.039594006, 0.007875738, 0.1021984), (-0.040175308, 0.0039569223, 0.1021984), (-0.0403697, 4.9438625e-18, 0.1021984), (-0.040175308, -0.0039569223, 0.1021984), (-0.039594006, -0.007875738, 0.1021984), (-0.038631395, -0.011718705, 0.1021984), (-0.03729674, -0.015448815, 0.1021984), (-0.035602897, -0.019030144, 0.1021984), (-0.03356618, -0.022428203, 0.1021984), (-0.0312062, -0.025610266, 0.1021984), (-0.028545689, -0.028545689, 0.1021984), (-0.025610266, -0.0312062, 0.1021984), (-0.022428203, -0.03356618, 0.1021984), (-0.019030144, -0.035602897, 0.1021984), (-0.015448815, -0.03729674, 0.1021984), (-0.011718705, -0.038631395, 0.1021984), (-0.007875738, -0.039594006, 0.1021984), (-0.0039569223, -0.040175308, 0.1021984), (-7.415793e-18, -0.0403697, 0.1021984), (0.0039569223, -0.040175308, 0.1021984), (0.007875738, -0.039594006, 0.1021984), (0.011718705, -0.038631395, 0.1021984), (0.015448815, -0.03729674, 0.1021984), (0.019030144, -0.035602897, 0.1021984), (0.022428203, -0.03356618, 0.1021984), (0.025610266, -0.0312062, 0.1021984), (0.028545689, -0.028545689, 0.1021984), (0.0312062, -0.025610266, 0.1021984), (0.03356618, -0.022428203, 0.1021984), (0.035602897, -0.019030144, 0.1021984), (0.03729674, -0.015448815, 0.1021984), (0.038631395, -0.011718705, 0.1021984), (0.039594006, -0.007875738, 0.1021984), (0.040175308, -0.0039569223, 0.1021984), (0.0264523, 0, 0.0012), (0.026324924, 0.0025927788, 0.0012), (0.025944026, 0.005160588, 0.0012), (0.025313273, 0.0076786974, 0.0012), (0.024438739, 0.010122857, 0.0012), (0.023328846, 0.012469528, 0.0012), (0.021994283, 0.01469611, 0.0012), (0.020447904, 0.01678116, 0.0012), (0.0187046, 0.0187046, 0.0012), (0.01678116, 0.020447904, 0.0012), (0.01469611, 0.021994283, 0.0012), (0.012469528, 0.023328846, 0.0012), (0.010122857, 0.024438739, 0.0012), (0.0076786974, 0.025313273, 0.0012), (0.005160588, 0.025944026, 0.0012), (0.0025927788, 0.026324924, 0.0012), (1.6197363e-18, 0.0264523, 0.0012), (-0.0025927788, 0.026324924, 0.0012), (-0.005160588, 0.025944026, 0.0012), (-0.0076786974, 0.025313273, 0.0012), (-0.010122857, 0.024438739, 0.0012), (-0.012469528, 0.023328846, 0.0012), (-0.01469611, 0.021994283, 0.0012), (-0.01678116, 0.020447904, 0.0012), (-0.0187046, 0.0187046, 0.0012), (-0.020447904, 0.01678116, 0.0012), (-0.021994283, 0.01469611, 0.0012), (-0.023328846, 0.012469528, 0.0012), (-0.024438739, 0.010122857, 0.0012), (-0.025313273, 0.0076786974, 0.0012), (-0.025944026, 0.005160588, 0.0012), (-0.026324924, 0.0025927788, 0.0012), (-0.0264523, 3.2394725e-18, 0.0012), (-0.026324924, -0.0025927788, 0.0012), (-0.025944026, -0.005160588, 0.0012), (-0.025313273, -0.0076786974, 0.0012), (-0.024438739, -0.010122857, 0.0012), (-0.023328846, -0.012469528, 0.0012), (-0.021994283, -0.01469611, 0.0012), (-0.020447904, -0.01678116, 0.0012), (-0.0187046, -0.0187046, 0.0012), (-0.01678116, -0.020447904, 0.0012), (-0.01469611, -0.021994283, 0.0012), (-0.012469528, -0.023328846, 0.0012), (-0.010122857, -0.024438739, 0.0012), (-0.0076786974, -0.025313273, 0.0012), (-0.005160588, -0.025944026, 0.0012), (-0.0025927788, -0.026324924, 0.0012), (-4.859209e-18, -0.0264523, 0.0012), (0.0025927788, -0.026324924, 0.0012), (0.005160588, -0.025944026, 0.0012), (0.0076786974, -0.025313273, 0.0012), (0.010122857, -0.024438739, 0.0012), (0.012469528, -0.023328846, 0.0012), (0.01469611, -0.021994283, 0.0012), (0.01678116, -0.020447904, 0.0012), (0.0187046, -0.0187046, 0.0012), (0.020447904, -0.01678116, 0.0012), (0.021994283, -0.01469611, 0.0012), (0.023328846, -0.012469528, 0.0012), (0.024438739, -0.010122857, 0.0012), (0.025313273, -0.0076786974, 0.0012), (0.025944026, -0.005160588, 0.0012), (0.026324924, -0.0025927788, 0.0012)]
                uniform token subdivisionScheme = "none"
            }

            def "Collision"
            {
                def Mesh "Wall00" (
                    prepend apiSchemas = ["MaterialBindingAPI", "PhysicsCollisionAPI", "PhysicsMeshCollisionAPI"]
                )
                {
                    uniform bool doubleSided = 1
                    float3[] extent = [(0.025944026, 0, 0), (0.0415697, 0.008109846, 0.1021984)]
                    int[] faceVertexCounts = [4, 4, 4, 4, 4, 4]
                    int[] faceVertexIndices = [0, 1, 3, 2, 2, 3, 5, 4, 4, 5, 7, 6, 6, 7, 1, 0, 0, 2, 4, 6, 1, 7, 5, 3]
                    rel material:binding = </World/Materials/Paper>
                    uniform token physics:approximation = "convexHull"
                    point3f[] points = [(0.0276523, 0, 0), (0.027120968, 0.0053946963, 0), (0.0415697, 0, 0.1021984), (0.04077095, 0.008109846, 0.1021984), (0.0403697, 0, 0.1021984), (0.039594006, 0.007875738, 0.1021984), (0.0264523, 0, 0), (0.025944026, 0.005160588, 0)]
                    uniform token purpose = "guide"
                    uniform token subdivisionScheme = "none"
                }

                def Mesh "Wall01" (
                    prepend apiSchemas = ["MaterialBindingAPI", "PhysicsCollisionAPI", "PhysicsMeshCollisionAPI"]
                )
                {
                    uniform bool doubleSided = 1
                    float3[] extent = [(0.024438739, 0.005160588, 0), (0.04077095, 0.015908036, 0.1021984)]
                    int[] faceVertexCounts = [4, 4, 4, 4, 4, 4]
                    int[] faceVertexIndices = [0, 1, 3, 2, 2, 3, 5, 4, 4, 5, 7, 6, 6, 7, 1, 0, 0, 2, 4, 6, 1, 7, 5, 3]
                    rel material:binding = </World/Materials/Paper>
                    uniform token physics:approximation = "convexHull"
                    point3f[] points = [(0.027120968, 0.0053946963, 0), (0.025547395, 0.010582077, 0), (0.04077095, 0.008109846, 0.1021984), (0.038405396, 0.015908036, 0.1021984), (0.039594006, 0.007875738, 0.1021984), (0.03729674, 0.015448815, 0.1021984), (0.025944026, 0.005160588, 0), (0.024438739, 0.010122857, 0)]
                    uniform token purpose = "guide"
                    uniform token subdivisionScheme = "none"
                }

                def Mesh "Wall02" (
                    prepend apiSchemas = ["MaterialBindingAPI", "PhysicsCollisionAPI", "PhysicsMeshCollisionAPI"]
                )
                {
                    uniform bool doubleSided = 1
                    float3[] extent = [(0.021994283, 0.010122857, 0), (0.038405396, 0.023094889, 0.1021984)]
                    int[] faceVertexCounts = [4, 4, 4, 4, 4, 4]
                    int[] faceVertexIndices = [0, 1, 3, 2, 2, 3, 5, 4, 4, 5, 7, 6, 6, 7, 1, 0, 0, 2, 4, 6, 1, 7, 5, 3]
                    rel material:binding = </World/Materials/Paper>
                    uniform token physics:approximation = "convexHull"
                    point3f[] points = [(0.025547395, 0.010582077, 0), (0.022992047, 0.0153627945, 0), (0.038405396, 0.015908036, 0.1021984), (0.034563944, 0.023094889, 0.1021984), (0.03729674, 0.015448815, 0.1021984), (0.03356618, 0.022428203, 0.1021984), (0.024438739, 0.010122857, 0), (0.021994283, 0.01469611, 0)]
                    uniform token purpose = "guide"
                    uniform token subdivisionScheme = "none"
                }

                def Mesh "Wall03" (
                    prepend apiSchemas = ["MaterialBindingAPI", "PhysicsCollisionAPI", "PhysicsMeshCollisionAPI"]
                )
                {
                    uniform bool doubleSided = 1
                    float3[] extent = [(0.0187046, 0.01469611, 0), (0.034563944, 0.029394217, 0.1021984)]
                    int[] faceVertexCounts = [4, 4, 4, 4, 4, 4]
                    int[] faceVertexIndices = [0, 1, 3, 2, 2, 3, 5, 4, 4, 5, 7, 6, 6, 7, 1, 0, 0, 2, 4, 6, 1, 7, 5, 3]
                    rel material:binding = </World/Materials/Paper>
                    uniform token physics:approximation = "convexHull"
                    point3f[] points = [(0.022992047, 0.0153627945, 0), (0.019553129, 0.019553129, 0), (0.034563944, 0.023094889, 0.1021984), (0.029394217, 0.029394217, 0.1021984), (0.03356618, 0.022428203, 0.1021984), (0.028545689, 0.028545689, 0.1021984), (0.021994283, 0.01469611, 0), (0.0187046, 0.0187046, 0)]
                    uniform token purpose = "guide"
                    uniform token subdivisionScheme = "none"
                }

                def Mesh "Wall04" (
                    prepend apiSchemas = ["MaterialBindingAPI", "PhysicsCollisionAPI", "PhysicsMeshCollisionAPI"]
                )
                {
                    uniform bool doubleSided = 1
                    float3[] extent = [(0.01469611, 0.0187046, 0), (0.029394217, 0.034563944, 0.1021984)]
                    int[] faceVertexCounts = [4, 4, 4, 4, 4, 4]
                    int[] faceVertexIndices = [0, 1, 3, 2, 2, 3, 5, 4, 4, 5, 7, 6, 6, 7, 1, 0, 0, 2, 4, 6, 1, 7, 5, 3]
                    rel material:binding = </World/Materials/Paper>
                    uniform token physics:approximation = "convexHull"
                    point3f[] points = [(0.019553129, 0.019553129, 0), (0.0153627945, 0.022992047, 0), (0.029394217, 0.029394217, 0.1021984), (0.023094889, 0.034563944, 0.1021984), (0.028545689, 0.028545689, 0.1021984), (0.022428203, 0.03356618, 0.1021984), (0.0187046, 0.0187046, 0), (0.01469611, 0.021994283, 0)]
                    uniform token purpose = "guide"
                    uniform token subdivisionScheme = "none"
                }

                def Mesh "Wall05" (
                    prepend apiSchemas = ["MaterialBindingAPI", "PhysicsCollisionAPI", "PhysicsMeshCollisionAPI"]
                )
                {
                    uniform bool doubleSided = 1
                    float3[] extent = [(0.010122857, 0.021994283, 0), (0.023094889, 0.038405396, 0.1021984)]
                    int[] faceVertexCounts = [4, 4, 4, 4, 4, 4]
                    int[] faceVertexIndices = [0, 1, 3, 2, 2, 3, 5, 4, 4, 5, 7, 6, 6, 7, 1, 0, 0, 2, 4, 6, 1, 7, 5, 3]
                    rel material:binding = </World/Materials/Paper>
                    uniform token physics:approximation = "convexHull"
                    point3f[] points = [(0.0153627945, 0.022992047, 0), (0.010582077, 0.025547395, 0), (0.023094889, 0.034563944, 0.1021984), (0.015908036, 0.038405396, 0.1021984), (0.022428203, 0.03356618, 0.1021984), (0.015448815, 0.03729674, 0.1021984), (0.01469611, 0.021994283, 0), (0.010122857, 0.024438739, 0)]
                    uniform token purpose = "guide"
                    uniform token subdivisionScheme = "none"
                }

                def Mesh "Wall06" (
                    prepend apiSchemas = ["MaterialBindingAPI", "PhysicsCollisionAPI", "PhysicsMeshCollisionAPI"]
                )
                {
                    uniform bool doubleSided = 1
                    float3[] extent = [(0.005160588, 0.024438739, 0), (0.015908036, 0.04077095, 0.1021984)]
                    int[] faceVertexCounts = [4, 4, 4, 4, 4, 4]
                    int[] faceVertexIndices = [0, 1, 3, 2, 2, 3, 5, 4, 4, 5, 7, 6, 6, 7, 1, 0, 0, 2, 4, 6, 1, 7, 5, 3]
                    rel material:binding = </World/Materials/Paper>
                    uniform token physics:approximation = "convexHull"
                    point3f[] points = [(0.010582077, 0.025547395, 0), (0.0053946963, 0.027120968, 0), (0.015908036, 0.038405396, 0.1021984), (0.008109846, 0.04077095, 0.1021984), (0.015448815, 0.03729674, 0.1021984), (0.007875738, 0.039594006, 0.1021984), (0.010122857, 0.024438739, 0), (0.005160588, 0.025944026, 0)]
                    uniform token purpose = "guide"
                    uniform token subdivisionScheme = "none"
                }

                def Mesh "Wall07" (
                    prepend apiSchemas = ["MaterialBindingAPI", "PhysicsCollisionAPI", "PhysicsMeshCollisionAPI"]
                )
                {
                    uniform bool doubleSided = 1
                    float3[] extent = [(1.6197363e-18, 0.025944026, 0), (0.008109846, 0.0415697, 0.1021984)]
                    int[] faceVertexCounts = [4, 4, 4, 4, 4, 4]
                    int[] faceVertexIndices = [0, 1, 3, 2, 2, 3, 5, 4, 4, 5, 7, 6, 6, 7, 1, 0, 0, 2, 4, 6, 1, 7, 5, 3]
                    rel material:binding = </World/Materials/Paper>
                    uniform token physics:approximation = "convexHull"
                    point3f[] points = [(0.0053946963, 0.027120968, 0), (1.693215e-18, 0.0276523, 0), (0.008109846, 0.04077095, 0.1021984), (2.54541e-18, 0.0415697, 0.1021984), (0.007875738, 0.039594006, 0.1021984), (2.4719312e-18, 0.0403697, 0.1021984), (0.005160588, 0.025944026, 0), (1.6197363e-18, 0.0264523, 0)]
                    uniform token purpose = "guide"
                    uniform token subdivisionScheme = "none"
                }

                def Mesh "Wall08" (
                    prepend apiSchemas = ["MaterialBindingAPI", "PhysicsCollisionAPI", "PhysicsMeshCollisionAPI"]
                )
                {
                    uniform bool doubleSided = 1
                    float3[] extent = [(-0.008109846, 0.025944026, 0), (2.54541e-18, 0.0415697, 0.1021984)]
                    int[] faceVertexCounts = [4, 4, 4, 4, 4, 4]
                    int[] faceVertexIndices = [0, 1, 3, 2, 2, 3, 5, 4, 4, 5, 7, 6, 6, 7, 1, 0, 0, 2, 4, 6, 1, 7, 5, 3]
                    rel material:binding = </World/Materials/Paper>
                    uniform token physics:approximation = "convexHull"
                    point3f[] points = [(1.693215e-18, 0.0276523, 0), (-0.0053946963, 0.027120968, 0), (2.54541e-18, 0.0415697, 0.1021984), (-0.008109846, 0.04077095, 0.1021984), (2.4719312e-18, 0.0403697, 0.1021984), (-0.007875738, 0.039594006, 0.1021984), (1.6197363e-18, 0.0264523, 0), (-0.005160588, 0.025944026, 0)]
                    uniform token purpose = "guide"
                    uniform token subdivisionScheme = "none"
                }

                def Mesh "Wall09" (
                    prepend apiSchemas = ["MaterialBindingAPI", "PhysicsCollisionAPI", "PhysicsMeshCollisionAPI"]
                )
                {
                    uniform bool doubleSided = 1
                    float3[] extent = [(-0.015908036, 0.024438739, 0), (-0.005160588, 0.04077095, 0.1021984)]
                    int[] faceVertexCounts = [4, 4, 4, 4, 4, 4]
                    int[] faceVertexIndices = [0, 1, 3, 2, 2, 3, 5, 4, 4, 5, 7, 6, 6, 7, 1, 0, 0, 2, 4, 6, 1, 7, 5, 3]
                    rel material:binding = </World/Materials/Paper>
                    uniform token physics:approximation = "convexHull"
                    point3f[] points = [(-0.0053946963, 0.027120968, 0), (-0.010582077, 0.025547395, 0), (-0.008109846, 0.04077095, 0.1021984), (-0.015908036, 0.038405396, 0.1021984), (-0.007875738, 0.039594006, 0.1021984), (-0.015448815, 0.03729674, 0.1021984), (-0.005160588, 0.025944026, 0), (-0.010122857, 0.024438739, 0)]
                    uniform token purpose = "guide"
                    uniform token subdivisionScheme = "none"
                }

                def Mesh "Wall10" (
                    prepend apiSchemas = ["MaterialBindingAPI", "PhysicsCollisionAPI", "PhysicsMeshCollisionAPI"]
                )
                {
                    uniform bool doubleSided = 1
                    float3[] extent = [(-0.023094889, 0.021994283, 0), (-0.010122857, 0.038405396, 0.1021984)]
                    int[] faceVertexCounts = [4, 4, 4, 4, 4, 4]
                    int[] faceVertexIndices = [0, 1, 3, 2, 2, 3, 5, 4, 4, 5, 7, 6, 6, 7, 1, 0, 0, 2, 4, 6, 1, 7, 5, 3]
                    rel material:binding = </World/Materials/Paper>
                    uniform token physics:approximation = "convexHull"
                    point3f[] points = [(-0.010582077, 0.025547395, 0), (-0.0153627945, 0.022992047, 0), (-0.015908036, 0.038405396, 0.1021984), (-0.023094889, 0.034563944, 0.1021984), (-0.015448815, 0.03729674, 0.1021984), (-0.022428203, 0.03356618, 0.1021984), (-0.010122857, 0.024438739, 0), (-0.01469611, 0.021994283, 0)]
                    uniform token purpose = "guide"
                    uniform token subdivisionScheme = "none"
                }

                def Mesh "Wall11" (
                    prepend apiSchemas = ["MaterialBindingAPI", "PhysicsCollisionAPI", "PhysicsMeshCollisionAPI"]
                )
                {
                    uniform bool doubleSided = 1
                    float3[] extent = [(-0.029394217, 0.0187046, 0), (-0.01469611, 0.034563944, 0.1021984)]
                    int[] faceVertexCounts = [4, 4, 4, 4, 4, 4]
                    int[] faceVertexIndices = [0, 1, 3, 2, 2, 3, 5, 4, 4, 5, 7, 6, 6, 7, 1, 0, 0, 2, 4, 6, 1, 7, 5, 3]
                    rel material:binding = </World/Materials/Paper>
                    uniform token physics:approximation = "convexHull"
                    point3f[] points = [(-0.0153627945, 0.022992047, 0), (-0.019553129, 0.019553129, 0), (-0.023094889, 0.034563944, 0.1021984), (-0.029394217, 0.029394217, 0.1021984), (-0.022428203, 0.03356618, 0.1021984), (-0.028545689, 0.028545689, 0.1021984), (-0.01469611, 0.021994283, 0), (-0.0187046, 0.0187046, 0)]
                    uniform token purpose = "guide"
                    uniform token subdivisionScheme = "none"
                }

                def Mesh "Wall12" (
                    prepend apiSchemas = ["MaterialBindingAPI", "PhysicsCollisionAPI", "PhysicsMeshCollisionAPI"]
                )
                {
                    uniform bool doubleSided = 1
                    float3[] extent = [(-0.034563944, 0.01469611, 0), (-0.0187046, 0.029394217, 0.1021984)]
                    int[] faceVertexCounts = [4, 4, 4, 4, 4, 4]
                    int[] faceVertexIndices = [0, 1, 3, 2, 2, 3, 5, 4, 4, 5, 7, 6, 6, 7, 1, 0, 0, 2, 4, 6, 1, 7, 5, 3]
                    rel material:binding = </World/Materials/Paper>
                    uniform token physics:approximation = "convexHull"
                    point3f[] points = [(-0.019553129, 0.019553129, 0), (-0.022992047, 0.0153627945, 0), (-0.029394217, 0.029394217, 0.1021984), (-0.034563944, 0.023094889, 0.1021984), (-0.028545689, 0.028545689, 0.1021984), (-0.03356618, 0.022428203, 0.1021984), (-0.0187046, 0.0187046, 0), (-0.021994283, 0.01469611, 0)]
                    uniform token purpose = "guide"
                    uniform token subdivisionScheme = "none"
                }

                def Mesh "Wall13" (
                    prepend apiSchemas = ["MaterialBindingAPI", "PhysicsCollisionAPI", "PhysicsMeshCollisionAPI"]
                )
                {
                    uniform bool doubleSided = 1
                    float3[] extent = [(-0.038405396, 0.010122857, 0), (-0.021994283, 0.023094889, 0.1021984)]
                    int[] faceVertexCounts = [4, 4, 4, 4, 4, 4]
                    int[] faceVertexIndices = [0, 1, 3, 2, 2, 3, 5, 4, 4, 5, 7, 6, 6, 7, 1, 0, 0, 2, 4, 6, 1, 7, 5, 3]
                    rel material:binding = </World/Materials/Paper>
                    uniform token physics:approximation = "convexHull"
                    point3f[] points = [(-0.022992047, 0.0153627945, 0), (-0.025547395, 0.010582077, 0), (-0.034563944, 0.023094889, 0.1021984), (-0.038405396, 0.015908036, 0.1021984), (-0.03356618, 0.022428203, 0.1021984), (-0.03729674, 0.015448815, 0.1021984), (-0.021994283, 0.01469611, 0), (-0.024438739, 0.010122857, 0)]
                    uniform token purpose = "guide"
                    uniform token subdivisionScheme = "none"
                }

                def Mesh "Wall14" (
                    prepend apiSchemas = ["MaterialBindingAPI", "PhysicsCollisionAPI", "PhysicsMeshCollisionAPI"]
                )
                {
                    uniform bool doubleSided = 1
                    float3[] extent = [(-0.04077095, 0.005160588, 0), (-0.024438739, 0.015908036, 0.1021984)]
                    int[] faceVertexCounts = [4, 4, 4, 4, 4, 4]
                    int[] faceVertexIndices = [0, 1, 3, 2, 2, 3, 5, 4, 4, 5, 7, 6, 6, 7, 1, 0, 0, 2, 4, 6, 1, 7, 5, 3]
                    rel material:binding = </World/Materials/Paper>
                    uniform token physics:approximation = "convexHull"
                    point3f[] points = [(-0.025547395, 0.010582077, 0), (-0.027120968, 0.0053946963, 0), (-0.038405396, 0.015908036, 0.1021984), (-0.04077095, 0.008109846, 0.1021984), (-0.03729674, 0.015448815, 0.1021984), (-0.039594006, 0.007875738, 0.1021984), (-0.024438739, 0.010122857, 0), (-0.025944026, 0.005160588, 0)]
                    uniform token purpose = "guide"
                    uniform token subdivisionScheme = "none"
                }

                def Mesh "Wall15" (
                    prepend apiSchemas = ["MaterialBindingAPI", "PhysicsCollisionAPI", "PhysicsMeshCollisionAPI"]
                )
                {
                    uniform bool doubleSided = 1
                    float3[] extent = [(-0.0415697, 3.2394725e-18, 0), (-0.025944026, 0.008109846, 0.1021984)]
                    int[] faceVertexCounts = [4, 4, 4, 4, 4, 4]
                    int[] faceVertexIndices = [0, 1, 3, 2, 2, 3, 5, 4, 4, 5, 7, 6, 6, 7, 1, 0, 0, 2, 4, 6, 1, 7, 5, 3]
                    rel material:binding = </World/Materials/Paper>
                    uniform token physics:approximation = "convexHull"
                    point3f[] points = [(-0.027120968, 0.0053946963, 0), (-0.0276523, 3.38643e-18, 0), (-0.04077095, 0.008109846, 0.1021984), (-0.0415697, 5.09082e-18, 0.1021984), (-0.039594006, 0.007875738, 0.1021984), (-0.0403697, 4.9438625e-18, 0.1021984), (-0.025944026, 0.005160588, 0), (-0.0264523, 3.2394725e-18, 0)]
                    uniform token purpose = "guide"
                    uniform token subdivisionScheme = "none"
                }

                def Mesh "Wall16" (
                    prepend apiSchemas = ["MaterialBindingAPI", "PhysicsCollisionAPI", "PhysicsMeshCollisionAPI"]
                )
                {
                    uniform bool doubleSided = 1
                    float3[] extent = [(-0.0415697, -0.008109846, 0), (-0.025944026, 5.09082e-18, 0.1021984)]
                    int[] faceVertexCounts = [4, 4, 4, 4, 4, 4]
                    int[] faceVertexIndices = [0, 1, 3, 2, 2, 3, 5, 4, 4, 5, 7, 6, 6, 7, 1, 0, 0, 2, 4, 6, 1, 7, 5, 3]
                    rel material:binding = </World/Materials/Paper>
                    uniform token physics:approximation = "convexHull"
                    point3f[] points = [(-0.0276523, 3.38643e-18, 0), (-0.027120968, -0.0053946963, 0), (-0.0415697, 5.09082e-18, 0.1021984), (-0.04077095, -0.008109846, 0.1021984), (-0.0403697, 4.9438625e-18, 0.1021984), (-0.039594006, -0.007875738, 0.1021984), (-0.0264523, 3.2394725e-18, 0), (-0.025944026, -0.005160588, 0)]
                    uniform token purpose = "guide"
                    uniform token subdivisionScheme = "none"
                }

                def Mesh "Wall17" (
                    prepend apiSchemas = ["MaterialBindingAPI", "PhysicsCollisionAPI", "PhysicsMeshCollisionAPI"]
                )
                {
                    uniform bool doubleSided = 1
                    float3[] extent = [(-0.04077095, -0.015908036, 0), (-0.024438739, -0.005160588, 0.1021984)]
                    int[] faceVertexCounts = [4, 4, 4, 4, 4, 4]
                    int[] faceVertexIndices = [0, 1, 3, 2, 2, 3, 5, 4, 4, 5, 7, 6, 6, 7, 1, 0, 0, 2, 4, 6, 1, 7, 5, 3]
                    rel material:binding = </World/Materials/Paper>
                    uniform token physics:approximation = "convexHull"
                    point3f[] points = [(-0.027120968, -0.0053946963, 0), (-0.025547395, -0.010582077, 0), (-0.04077095, -0.008109846, 0.1021984), (-0.038405396, -0.015908036, 0.1021984), (-0.039594006, -0.007875738, 0.1021984), (-0.03729674, -0.015448815, 0.1021984), (-0.025944026, -0.005160588, 0), (-0.024438739, -0.010122857, 0)]
                    uniform token purpose = "guide"
                    uniform token subdivisionScheme = "none"
                }

                def Mesh "Wall18" (
                    prepend apiSchemas = ["MaterialBindingAPI", "PhysicsCollisionAPI", "PhysicsMeshCollisionAPI"]
                )
                {
                    uniform bool doubleSided = 1
                    float3[] extent = [(-0.038405396, -0.023094889, 0), (-0.021994283, -0.010122857, 0.1021984)]
                    int[] faceVertexCounts = [4, 4, 4, 4, 4, 4]
                    int[] faceVertexIndices = [0, 1, 3, 2, 2, 3, 5, 4, 4, 5, 7, 6, 6, 7, 1, 0, 0, 2, 4, 6, 1, 7, 5, 3]
                    rel material:binding = </World/Materials/Paper>
                    uniform token physics:approximation = "convexHull"
                    point3f[] points = [(-0.025547395, -0.010582077, 0), (-0.022992047, -0.0153627945, 0), (-0.038405396, -0.015908036, 0.1021984), (-0.034563944, -0.023094889, 0.1021984), (-0.03729674, -0.015448815, 0.1021984), (-0.03356618, -0.022428203, 0.1021984), (-0.024438739, -0.010122857, 0), (-0.021994283, -0.01469611, 0)]
                    uniform token purpose = "guide"
                    uniform token subdivisionScheme = "none"
                }

                def Mesh "Wall19" (
                    prepend apiSchemas = ["MaterialBindingAPI", "PhysicsCollisionAPI", "PhysicsMeshCollisionAPI"]
                )
                {
                    uniform bool doubleSided = 1
                    float3[] extent = [(-0.034563944, -0.029394217, 0), (-0.0187046, -0.01469611, 0.1021984)]
                    int[] faceVertexCounts = [4, 4, 4, 4, 4, 4]
                    int[] faceVertexIndices = [0, 1, 3, 2, 2, 3, 5, 4, 4, 5, 7, 6, 6, 7, 1, 0, 0, 2, 4, 6, 1, 7, 5, 3]
                    rel material:binding = </World/Materials/Paper>
                    uniform token physics:approximation = "convexHull"
                    point3f[] points = [(-0.022992047, -0.0153627945, 0), (-0.019553129, -0.019553129, 0), (-0.034563944, -0.023094889, 0.1021984), (-0.029394217, -0.029394217, 0.1021984), (-0.03356618, -0.022428203, 0.1021984), (-0.028545689, -0.028545689, 0.1021984), (-0.021994283, -0.01469611, 0), (-0.0187046, -0.0187046, 0)]
                    uniform token purpose = "guide"
                    uniform token subdivisionScheme = "none"
                }

                def Mesh "Wall20" (
                    prepend apiSchemas = ["MaterialBindingAPI", "PhysicsCollisionAPI", "PhysicsMeshCollisionAPI"]
                )
                {
                    uniform bool doubleSided = 1
                    float3[] extent = [(-0.029394217, -0.034563944, 0), (-0.01469611, -0.0187046, 0.1021984)]
                    int[] faceVertexCounts = [4, 4, 4, 4, 4, 4]
                    int[] faceVertexIndices = [0, 1, 3, 2, 2, 3, 5, 4, 4, 5, 7, 6, 6, 7, 1, 0, 0, 2, 4, 6, 1, 7, 5, 3]
                    rel material:binding = </World/Materials/Paper>
                    uniform token physics:approximation = "convexHull"
                    point3f[] points = [(-0.019553129, -0.019553129, 0), (-0.0153627945, -0.022992047, 0), (-0.029394217, -0.029394217, 0.1021984), (-0.023094889, -0.034563944, 0.1021984), (-0.028545689, -0.028545689, 0.1021984), (-0.022428203, -0.03356618, 0.1021984), (-0.0187046, -0.0187046, 0), (-0.01469611, -0.021994283, 0)]
                    uniform token purpose = "guide"
                    uniform token subdivisionScheme = "none"
                }

                def Mesh "Wall21" (
                    prepend apiSchemas = ["MaterialBindingAPI", "PhysicsCollisionAPI", "PhysicsMeshCollisionAPI"]
                )
                {
                    uniform bool doubleSided = 1
                    float3[] extent = [(-0.023094889, -0.038405396, 0), (-0.010122857, -0.021994283, 0.1021984)]
                    int[] faceVertexCounts = [4, 4, 4, 4, 4, 4]
                    int[] faceVertexIndices = [0, 1, 3, 2, 2, 3, 5, 4, 4, 5, 7, 6, 6, 7, 1, 0, 0, 2, 4, 6, 1, 7, 5, 3]
                    rel material:binding = </World/Materials/Paper>
                    uniform token physics:approximation = "convexHull"
                    point3f[] points = [(-0.0153627945, -0.022992047, 0), (-0.010582077, -0.025547395, 0), (-0.023094889, -0.034563944, 0.1021984), (-0.015908036, -0.038405396, 0.1021984), (-0.022428203, -0.03356618, 0.1021984), (-0.015448815, -0.03729674, 0.1021984), (-0.01469611, -0.021994283, 0), (-0.010122857, -0.024438739, 0)]
                    uniform token purpose = "guide"
                    uniform token subdivisionScheme = "none"
                }

                def Mesh "Wall22" (
                    prepend apiSchemas = ["MaterialBindingAPI", "PhysicsCollisionAPI", "PhysicsMeshCollisionAPI"]
                )
                {
                    uniform bool doubleSided = 1
                    float3[] extent = [(-0.015908036, -0.04077095, 0), (-0.005160588, -0.024438739, 0.1021984)]
                    int[] faceVertexCounts = [4, 4, 4, 4, 4, 4]
                    int[] faceVertexIndices = [0, 1, 3, 2, 2, 3, 5, 4, 4, 5, 7, 6, 6, 7, 1, 0, 0, 2, 4, 6, 1, 7, 5, 3]
                    rel material:binding = </World/Materials/Paper>
                    uniform token physics:approximation = "convexHull"
                    point3f[] points = [(-0.010582077, -0.025547395, 0), (-0.0053946963, -0.027120968, 0), (-0.015908036, -0.038405396, 0.1021984), (-0.008109846, -0.04077095, 0.1021984), (-0.015448815, -0.03729674, 0.1021984), (-0.007875738, -0.039594006, 0.1021984), (-0.010122857, -0.024438739, 0), (-0.005160588, -0.025944026, 0)]
                    uniform token purpose = "guide"
                    uniform token subdivisionScheme = "none"
                }

                def Mesh "Wall23" (
                    prepend apiSchemas = ["MaterialBindingAPI", "PhysicsCollisionAPI", "PhysicsMeshCollisionAPI"]
                )
                {
                    uniform bool doubleSided = 1
                    float3[] extent = [(-0.008109846, -0.0415697, 0), (-4.859209e-18, -0.025944026, 0.1021984)]
                    int[] faceVertexCounts = [4, 4, 4, 4, 4, 4]
                    int[] faceVertexIndices = [0, 1, 3, 2, 2, 3, 5, 4, 4, 5, 7, 6, 6, 7, 1, 0, 0, 2, 4, 6, 1, 7, 5, 3]
                    rel material:binding = </World/Materials/Paper>
                    uniform token physics:approximation = "convexHull"
                    point3f[] points = [(-0.0053946963, -0.027120968, 0), (-5.079645e-18, -0.0276523, 0), (-0.008109846, -0.04077095, 0.1021984), (-7.63623e-18, -0.0415697, 0.1021984), (-0.007875738, -0.039594006, 0.1021984), (-7.415793e-18, -0.0403697, 0.1021984), (-0.005160588, -0.025944026, 0), (-4.859209e-18, -0.0264523, 0)]
                    uniform token purpose = "guide"
                    uniform token subdivisionScheme = "none"
                }

                def Mesh "Wall24" (
                    prepend apiSchemas = ["MaterialBindingAPI", "PhysicsCollisionAPI", "PhysicsMeshCollisionAPI"]
                )
                {
                    uniform bool doubleSided = 1
                    float3[] extent = [(-7.63623e-18, -0.0415697, 0), (0.008109846, -0.025944026, 0.1021984)]
                    int[] faceVertexCounts = [4, 4, 4, 4, 4, 4]
                    int[] faceVertexIndices = [0, 1, 3, 2, 2, 3, 5, 4, 4, 5, 7, 6, 6, 7, 1, 0, 0, 2, 4, 6, 1, 7, 5, 3]
                    rel material:binding = </World/Materials/Paper>
                    uniform token physics:approximation = "convexHull"
                    point3f[] points = [(-5.079645e-18, -0.0276523, 0), (0.0053946963, -0.027120968, 0), (-7.63623e-18, -0.0415697, 0.1021984), (0.008109846, -0.04077095, 0.1021984), (-7.415793e-18, -0.0403697, 0.1021984), (0.007875738, -0.039594006, 0.1021984), (-4.859209e-18, -0.0264523, 0), (0.005160588, -0.025944026, 0)]
                    uniform token purpose = "guide"
                    uniform token subdivisionScheme = "none"
                }

                def Mesh "Wall25" (
                    prepend apiSchemas = ["MaterialBindingAPI", "PhysicsCollisionAPI", "PhysicsMeshCollisionAPI"]
                )
                {
                    uniform bool doubleSided = 1
                    float3[] extent = [(0.005160588, -0.04077095, 0), (0.015908036, -0.024438739, 0.1021984)]
                    int[] faceVertexCounts = [4, 4, 4, 4, 4, 4]
                    int[] faceVertexIndices = [0, 1, 3, 2, 2, 3, 5, 4, 4, 5, 7, 6, 6, 7, 1, 0, 0, 2, 4, 6, 1, 7, 5, 3]
                    rel material:binding = </World/Materials/Paper>
                    uniform token physics:approximation = "convexHull"
                    point3f[] points = [(0.0053946963, -0.027120968, 0), (0.010582077, -0.025547395, 0), (0.008109846, -0.04077095, 0.1021984), (0.015908036, -0.038405396, 0.1021984), (0.007875738, -0.039594006, 0.1021984), (0.015448815, -0.03729674, 0.1021984), (0.005160588, -0.025944026, 0), (0.010122857, -0.024438739, 0)]
                    uniform token purpose = "guide"
                    uniform token subdivisionScheme = "none"
                }

                def Mesh "Wall26" (
                    prepend apiSchemas = ["MaterialBindingAPI", "PhysicsCollisionAPI", "PhysicsMeshCollisionAPI"]
                )
                {
                    uniform bool doubleSided = 1
                    float3[] extent = [(0.010122857, -0.038405396, 0), (0.023094889, -0.021994283, 0.1021984)]
                    int[] faceVertexCounts = [4, 4, 4, 4, 4, 4]
                    int[] faceVertexIndices = [0, 1, 3, 2, 2, 3, 5, 4, 4, 5, 7, 6, 6, 7, 1, 0, 0, 2, 4, 6, 1, 7, 5, 3]
                    rel material:binding = </World/Materials/Paper>
                    uniform token physics:approximation = "convexHull"
                    point3f[] points = [(0.010582077, -0.025547395, 0), (0.0153627945, -0.022992047, 0), (0.015908036, -0.038405396, 0.1021984), (0.023094889, -0.034563944, 0.1021984), (0.015448815, -0.03729674, 0.1021984), (0.022428203, -0.03356618, 0.1021984), (0.010122857, -0.024438739, 0), (0.01469611, -0.021994283, 0)]
                    uniform token purpose = "guide"
                    uniform token subdivisionScheme = "none"
                }

                def Mesh "Wall27" (
                    prepend apiSchemas = ["MaterialBindingAPI", "PhysicsCollisionAPI", "PhysicsMeshCollisionAPI"]
                )
                {
                    uniform bool doubleSided = 1
                    float3[] extent = [(0.01469611, -0.034563944, 0), (0.029394217, -0.0187046, 0.1021984)]
                    int[] faceVertexCounts = [4, 4, 4, 4, 4, 4]
                    int[] faceVertexIndices = [0, 1, 3, 2, 2, 3, 5, 4, 4, 5, 7, 6, 6, 7, 1, 0, 0, 2, 4, 6, 1, 7, 5, 3]
                    rel material:binding = </World/Materials/Paper>
                    uniform token physics:approximation = "convexHull"
                    point3f[] points = [(0.0153627945, -0.022992047, 0), (0.019553129, -0.019553129, 0), (0.023094889, -0.034563944, 0.1021984), (0.029394217, -0.029394217, 0.1021984), (0.022428203, -0.03356618, 0.1021984), (0.028545689, -0.028545689, 0.1021984), (0.01469611, -0.021994283, 0), (0.0187046, -0.0187046, 0)]
                    uniform token purpose = "guide"
                    uniform token subdivisionScheme = "none"
                }

                def Mesh "Wall28" (
                    prepend apiSchemas = ["MaterialBindingAPI", "PhysicsCollisionAPI", "PhysicsMeshCollisionAPI"]
                )
                {
                    uniform bool doubleSided = 1
                    float3[] extent = [(0.0187046, -0.029394217, 0), (0.034563944, -0.01469611, 0.1021984)]
                    int[] faceVertexCounts = [4, 4, 4, 4, 4, 4]
                    int[] faceVertexIndices = [0, 1, 3, 2, 2, 3, 5, 4, 4, 5, 7, 6, 6, 7, 1, 0, 0, 2, 4, 6, 1, 7, 5, 3]
                    rel material:binding = </World/Materials/Paper>
                    uniform token physics:approximation = "convexHull"
                    point3f[] points = [(0.019553129, -0.019553129, 0), (0.022992047, -0.0153627945, 0), (0.029394217, -0.029394217, 0.1021984), (0.034563944, -0.023094889, 0.1021984), (0.028545689, -0.028545689, 0.1021984), (0.03356618, -0.022428203, 0.1021984), (0.0187046, -0.0187046, 0), (0.021994283, -0.01469611, 0)]
                    uniform token purpose = "guide"
                    uniform token subdivisionScheme = "none"
                }

                def Mesh "Wall29" (
                    prepend apiSchemas = ["MaterialBindingAPI", "PhysicsCollisionAPI", "PhysicsMeshCollisionAPI"]
                )
                {
                    uniform bool doubleSided = 1
                    float3[] extent = [(0.021994283, -0.023094889, 0), (0.038405396, -0.010122857, 0.1021984)]
                    int[] faceVertexCounts = [4, 4, 4, 4, 4, 4]
                    int[] faceVertexIndices = [0, 1, 3, 2, 2, 3, 5, 4, 4, 5, 7, 6, 6, 7, 1, 0, 0, 2, 4, 6, 1, 7, 5, 3]
                    rel material:binding = </World/Materials/Paper>
                    uniform token physics:approximation = "convexHull"
                    point3f[] points = [(0.022992047, -0.0153627945, 0), (0.025547395, -0.010582077, 0), (0.034563944, -0.023094889, 0.1021984), (0.038405396, -0.015908036, 0.1021984), (0.03356618, -0.022428203, 0.1021984), (0.03729674, -0.015448815, 0.1021984), (0.021994283, -0.01469611, 0), (0.024438739, -0.010122857, 0)]
                    uniform token purpose = "guide"
                    uniform token subdivisionScheme = "none"
                }

                def Mesh "Wall30" (
                    prepend apiSchemas = ["MaterialBindingAPI", "PhysicsCollisionAPI", "PhysicsMeshCollisionAPI"]
                )
                {
                    uniform bool doubleSided = 1
                    float3[] extent = [(0.024438739, -0.015908036, 0), (0.04077095, -0.005160588, 0.1021984)]
                    int[] faceVertexCounts = [4, 4, 4, 4, 4, 4]
                    int[] faceVertexIndices = [0, 1, 3, 2, 2, 3, 5, 4, 4, 5, 7, 6, 6, 7, 1, 0, 0, 2, 4, 6, 1, 7, 5, 3]
                    rel material:binding = </World/Materials/Paper>
                    uniform token physics:approximation = "convexHull"
                    point3f[] points = [(0.025547395, -0.010582077, 0), (0.027120968, -0.0053946963, 0), (0.038405396, -0.015908036, 0.1021984), (0.04077095, -0.008109846, 0.1021984), (0.03729674, -0.015448815, 0.1021984), (0.039594006, -0.007875738, 0.1021984), (0.024438739, -0.010122857, 0), (0.025944026, -0.005160588, 0)]
                    uniform token purpose = "guide"
                    uniform token subdivisionScheme = "none"
                }

                def Mesh "Wall31" (
                    prepend apiSchemas = ["MaterialBindingAPI", "PhysicsCollisionAPI", "PhysicsMeshCollisionAPI"]
                )
                {
                    uniform bool doubleSided = 1
                    float3[] extent = [(0.025944026, -0.008109846, 0), (0.0415697, -6.478945e-18, 0.1021984)]
                    int[] faceVertexCounts = [4, 4, 4, 4, 4, 4]
                    int[] faceVertexIndices = [0, 1, 3, 2, 2, 3, 5, 4, 4, 5, 7, 6, 6, 7, 1, 0, 0, 2, 4, 6, 1, 7, 5, 3]
                    rel material:binding = </World/Materials/Paper>
                    uniform token physics:approximation = "convexHull"
                    point3f[] points = [(0.027120968, -0.0053946963, 0), (0.0276523, -6.77286e-18, 0), (0.04077095, -0.008109846, 0.1021984), (0.0415697, -1.018164e-17, 0.1021984), (0.039594006, -0.007875738, 0.1021984), (0.0403697, -9.887725e-18, 0.1021984), (0.025944026, -0.005160588, 0), (0.0264523, -6.478945e-18, 0)]
                    uniform token purpose = "guide"
                    uniform token subdivisionScheme = "none"
                }

                def Cylinder "Bottom" (
                    prepend apiSchemas = ["PhysicsCollisionAPI"]
                )
                {
                    double height = 0.0012
                    uniform token purpose = "guide"
                    double radius = 0.0276523
                    double3 xformOp:translate = (0, 0, 0.0006)
                    uniform token[] xformOpOrder = ["xformOp:translate"]
                }
            }

            def Mesh "Label" (
                prepend apiSchemas = ["MaterialBindingAPI"]
            )
            {
                uniform bool doubleSided = 1
                float3[] extent = [(-0.016191201, -0.039268456, 0.012), (0.016191201, -0.026817758, 0.0841984)]
                int[] faceVertexCounts = [4, 4, 4, 4, 4, 4, 4, 4, 4, 4, 4, 4, 4, 4, 4, 4, 4, 4, 4, 4]
                int[] faceVertexIndices = [0, 2, 3, 1, 2, 4, 5, 3, 4, 6, 7, 5, 6, 8, 9, 7, 8, 10, 11, 9, 10, 12, 13, 11, 12, 14, 15, 13, 14, 16, 17, 15, 16, 18, 19, 17, 18, 20, 21, 19, 20, 22, 23, 21, 22, 24, 25, 23, 24, 26, 27, 25, 26, 28, 29, 27, 28, 30, 31, 29, 30, 32, 33, 31, 32, 34, 35, 33, 34, 36, 37, 35, 36, 38, 39, 37, 38, 40, 41, 39]
                rel material:binding = </World/Materials/CupPrint>
                point3f[] points = [(-0.012137265, -0.026817758, 0.012), (-0.016191201, -0.035775084, 0.0841984), (-0.010986893, -0.02730922, 0.012), (-0.014656597, -0.036430698, 0.0841984), (-0.00981668, -0.027751362, 0.012), (-0.013095523, -0.03702052, 0.0841984), (-0.008628738, -0.028143387, 0.012), (-0.0115108, -0.037543483, 0.0841984), (-0.0074252123, -0.028484585, 0.012), (-0.009905288, -0.037998643, 0.0841984), (-0.0062082773, -0.02877434, 0.012), (-0.0082818875, -0.03838518, 0.0841984), (-0.0049801297, -0.029012129, 0.012), (-0.0066435295, -0.03870239, 0.0841984), (-0.0037429885, -0.029197523, 0.012), (-0.004993174, -0.03894971, 0.0841984), (-0.0024990875, -0.029330187, 0.012), (-0.003333801, -0.039126683, 0.0841984), (-0.0012506731, -0.029409882, 0.012), (-0.001668407, -0.039232995, 0.0841984), (1.8024636e-18, -0.029436463, 0.012), (2.4044995e-18, -0.039268456, 0.0841984), (0.0012506731, -0.029409882, 0.012), (0.001668407, -0.039232995, 0.0841984), (0.0024990875, -0.029330187, 0.012), (0.003333801, -0.039126683, 0.0841984), (0.0037429885, -0.029197523, 0.012), (0.004993174, -0.03894971, 0.0841984), (0.0049801297, -0.029012129, 0.012), (0.0066435295, -0.03870239, 0.0841984), (0.0062082773, -0.02877434, 0.012), (0.0082818875, -0.03838518, 0.0841984), (0.0074252123, -0.028484585, 0.012), (0.009905288, -0.037998643, 0.0841984), (0.008628738, -0.028143387, 0.012), (0.0115108, -0.037543483, 0.0841984), (0.00981668, -0.027751362, 0.012), (0.013095523, -0.03702052, 0.0841984), (0.010986893, -0.02730922, 0.012), (0.014656597, -0.036430698, 0.0841984), (0.012137265, -0.026817758, 0.012), (0.016191201, -0.035775084, 0.0841984)]
                texCoord2f[] primvars:st = [(0, 0), (0.05, 0), (0.05, 1), (0, 1), (0.05, 0), (0.1, 0), (0.1, 1), (0.05, 1), (0.1, 0), (0.15, 0), (0.15, 1), (0.1, 1), (0.15, 0), (0.2, 0), (0.2, 1), (0.15, 1), (0.2, 0), (0.25, 0), (0.25, 1), (0.2, 1), (0.25, 0), (0.3, 0), (0.3, 1), (0.25, 1), (0.3, 0), (0.35, 0), (0.35, 1), (0.3, 1), (0.35, 0), (0.4, 0), (0.4, 1), (0.35, 1), (0.4, 0), (0.45, 0), (0.45, 1), (0.4, 1), (0.45, 0), (0.5, 0), (0.5, 1), (0.45, 1), (0.5, 0), (0.55, 0), (0.55, 1), (0.5, 1), (0.55, 0), (0.6, 0), (0.6, 1), (0.55, 1), (0.6, 0), (0.65, 0), (0.65, 1), (0.6, 1), (0.65, 0), (0.7, 0), (0.7, 1), (0.65, 1), (0.7, 0), (0.75, 0), (0.75, 1), (0.7, 1), (0.75, 0), (0.8, 0), (0.8, 1), (0.75, 1), (0.8, 0), (0.85, 0), (0.85, 1), (0.8, 1), (0.85, 0), (0.9, 0), (0.9, 1), (0.85, 1), (0.9, 0), (0.95, 0), (0.95, 1), (0.9, 1), (0.95, 0), (1, 0), (1, 1), (0.95, 1)] (
                    interpolation = "faceVarying"
                )
                uniform token subdivisionScheme = "none"
            }
        }

        def Xform "Box"
        {
            double3 xformOp:translate = (-0.20384709742754953, -0.2958188159734567, 0)
            uniform token[] xformOpOrder = ["xformOp:translate"]

            def Mesh "Bottom" (
                prepend apiSchemas = ["MaterialBindingAPI", "PhysicsCollisionAPI", "PhysicsMeshCollisionAPI"]
            )
            {
                uniform bool doubleSided = 1
                float3[] extent = [(-0.5, -0.5, -0.5), (0.5, 0.5, 0.5)]
                int[] faceVertexCounts = [4, 4, 4, 4, 4, 4]
                int[] faceVertexIndices = [3, 2, 1, 0, 0, 1, 5, 4, 1, 2, 6, 5, 2, 3, 7, 6, 3, 0, 4, 7, 4, 5, 6, 7]
                rel material:binding = </World/Materials/Cardboard>
                normal3f[] normals = [(0, 0, -1), (0, -1, 0), (1, 0, 0), (0, 1, 0), (-1, 0, 0), (0, 0, 1)] (
                    interpolation = "uniform"
                )
                uniform token physics:approximation = "convexHull"
                point3f[] points = [(-0.5, -0.5, -0.5), (0.5, -0.5, -0.5), (0.5, 0.5, -0.5), (-0.5, 0.5, -0.5), (-0.5, -0.5, 0.5), (0.5, -0.5, 0.5), (0.5, 0.5, 0.5), (-0.5, 0.5, 0.5)]
                texCoord2f[] primvars:st = [(0, 0), (1, 0), (1, 1), (0, 1), (0, 0), (1, 0), (1, 1), (0, 1), (0, 0), (1, 0), (1, 1), (0, 1), (0, 0), (1, 0), (1, 1), (0, 1), (0, 0), (1, 0), (1, 1), (0, 1), (0, 0), (1, 0), (1, 1), (0, 1)] (
                    interpolation = "faceVarying"
                )
                uniform token subdivisionScheme = "none"
                float3 xformOp:scale = (0.27174282, 0.1916581, 0.003)
                double3 xformOp:translate = (0, 0, 0.0015)
                uniform token[] xformOpOrder = ["xformOp:translate", "xformOp:scale"]
            }

            def Mesh "Front" (
                prepend apiSchemas = ["MaterialBindingAPI", "PhysicsCollisionAPI", "PhysicsMeshCollisionAPI"]
            )
            {
                uniform bool doubleSided = 1
                float3[] extent = [(-0.5, -0.5, -0.5), (0.5, 0.5, 0.5)]
                int[] faceVertexCounts = [4, 4, 4, 4, 4, 4]
                int[] faceVertexIndices = [3, 2, 1, 0, 0, 1, 5, 4, 1, 2, 6, 5, 2, 3, 7, 6, 3, 0, 4, 7, 4, 5, 6, 7]
                rel material:binding = </World/Materials/Cardboard>
                normal3f[] normals = [(0, 0, -1), (0, -1, 0), (1, 0, 0), (0, 1, 0), (-1, 0, 0), (0, 0, 1)] (
                    interpolation = "uniform"
                )
                uniform token physics:approximation = "convexHull"
                point3f[] points = [(-0.5, -0.5, -0.5), (0.5, -0.5, -0.5), (0.5, 0.5, -0.5), (-0.5, 0.5, -0.5), (-0.5, -0.5, 0.5), (0.5, -0.5, 0.5), (0.5, 0.5, 0.5), (-0.5, 0.5, 0.5)]
                texCoord2f[] primvars:st = [(0, 0), (1, 0), (1, 1), (0, 1), (0, 0), (1, 0), (1, 1), (0, 1), (0, 0), (1, 0), (1, 1), (0, 1), (0, 0), (1, 0), (1, 1), (0, 1), (0, 0), (1, 0), (1, 1), (0, 1), (0, 0), (1, 0), (1, 1), (0, 1)] (
                    interpolation = "faceVarying"
                )
                uniform token subdivisionScheme = "none"
                float3 xformOp:scale = (0.27174282, 0.003, 0.2)
                double3 xformOp:translate = (0, -0.0958290444962025, 0.1)
                uniform token[] xformOpOrder = ["xformOp:translate", "xformOp:scale"]
            }

            def Mesh "Rear" (
                prepend apiSchemas = ["MaterialBindingAPI", "PhysicsCollisionAPI", "PhysicsMeshCollisionAPI"]
            )
            {
                uniform bool doubleSided = 1
                float3[] extent = [(-0.5, -0.5, -0.5), (0.5, 0.5, 0.5)]
                int[] faceVertexCounts = [4, 4, 4, 4, 4, 4]
                int[] faceVertexIndices = [3, 2, 1, 0, 0, 1, 5, 4, 1, 2, 6, 5, 2, 3, 7, 6, 3, 0, 4, 7, 4, 5, 6, 7]
                rel material:binding = </World/Materials/Cardboard>
                normal3f[] normals = [(0, 0, -1), (0, -1, 0), (1, 0, 0), (0, 1, 0), (-1, 0, 0), (0, 0, 1)] (
                    interpolation = "uniform"
                )
                uniform token physics:approximation = "convexHull"
                point3f[] points = [(-0.5, -0.5, -0.5), (0.5, -0.5, -0.5), (0.5, 0.5, -0.5), (-0.5, 0.5, -0.5), (-0.5, -0.5, 0.5), (0.5, -0.5, 0.5), (0.5, 0.5, 0.5), (-0.5, 0.5, 0.5)]
                texCoord2f[] primvars:st = [(0, 0), (1, 0), (1, 1), (0, 1), (0, 0), (1, 0), (1, 1), (0, 1), (0, 0), (1, 0), (1, 1), (0, 1), (0, 0), (1, 0), (1, 1), (0, 1), (0, 0), (1, 0), (1, 1), (0, 1), (0, 0), (1, 0), (1, 1), (0, 1)] (
                    interpolation = "faceVarying"
                )
                uniform token subdivisionScheme = "none"
                float3 xformOp:scale = (0.27174282, 0.003, 0.2)
                double3 xformOp:translate = (0, 0.0958290444962025, 0.1)
                uniform token[] xformOpOrder = ["xformOp:translate", "xformOp:scale"]
            }

            def Mesh "Left" (
                prepend apiSchemas = ["MaterialBindingAPI", "PhysicsCollisionAPI", "PhysicsMeshCollisionAPI"]
            )
            {
                uniform bool doubleSided = 1
                float3[] extent = [(-0.5, -0.5, -0.5), (0.5, 0.5, 0.5)]
                int[] faceVertexCounts = [4, 4, 4, 4, 4, 4]
                int[] faceVertexIndices = [3, 2, 1, 0, 0, 1, 5, 4, 1, 2, 6, 5, 2, 3, 7, 6, 3, 0, 4, 7, 4, 5, 6, 7]
                rel material:binding = </World/Materials/Cardboard>
                normal3f[] normals = [(0, 0, -1), (0, -1, 0), (1, 0, 0), (0, 1, 0), (-1, 0, 0), (0, 0, 1)] (
                    interpolation = "uniform"
                )
                uniform token physics:approximation = "convexHull"
                point3f[] points = [(-0.5, -0.5, -0.5), (0.5, -0.5, -0.5), (0.5, 0.5, -0.5), (-0.5, 0.5, -0.5), (-0.5, -0.5, 0.5), (0.5, -0.5, 0.5), (0.5, 0.5, 0.5), (-0.5, 0.5, 0.5)]
                texCoord2f[] primvars:st = [(0, 0), (1, 0), (1, 1), (0, 1), (0, 0), (1, 0), (1, 1), (0, 1), (0, 0), (1, 0), (1, 1), (0, 1), (0, 0), (1, 0), (1, 1), (0, 1), (0, 0), (1, 0), (1, 1), (0, 1), (0, 0), (1, 0), (1, 1), (0, 1)] (
                    interpolation = "faceVarying"
                )
                uniform token subdivisionScheme = "none"
                float3 xformOp:scale = (0.003, 0.1916581, 0.2)
                double3 xformOp:translate = (-0.13587141453671342, 0, 0.1)
                uniform token[] xformOpOrder = ["xformOp:translate", "xformOp:scale"]
            }

            def Mesh "Right" (
                prepend apiSchemas = ["MaterialBindingAPI", "PhysicsCollisionAPI", "PhysicsMeshCollisionAPI"]
            )
            {
                uniform bool doubleSided = 1
                float3[] extent = [(-0.5, -0.5, -0.5), (0.5, 0.5, 0.5)]
                int[] faceVertexCounts = [4, 4, 4, 4, 4, 4]
                int[] faceVertexIndices = [3, 2, 1, 0, 0, 1, 5, 4, 1, 2, 6, 5, 2, 3, 7, 6, 3, 0, 4, 7, 4, 5, 6, 7]
                rel material:binding = </World/Materials/Cardboard>
                normal3f[] normals = [(0, 0, -1), (0, -1, 0), (1, 0, 0), (0, 1, 0), (-1, 0, 0), (0, 0, 1)] (
                    interpolation = "uniform"
                )
                uniform token physics:approximation = "convexHull"
                point3f[] points = [(-0.5, -0.5, -0.5), (0.5, -0.5, -0.5), (0.5, 0.5, -0.5), (-0.5, 0.5, -0.5), (-0.5, -0.5, 0.5), (0.5, -0.5, 0.5), (0.5, 0.5, 0.5), (-0.5, 0.5, 0.5)]
                texCoord2f[] primvars:st = [(0, 0), (1, 0), (1, 1), (0, 1), (0, 0), (1, 0), (1, 1), (0, 1), (0, 0), (1, 0), (1, 1), (0, 1), (0, 0), (1, 0), (1, 1), (0, 1), (0, 0), (1, 0), (1, 1), (0, 1), (0, 0), (1, 0), (1, 1), (0, 1)] (
                    interpolation = "faceVarying"
                )
                uniform token subdivisionScheme = "none"
                float3 xformOp:scale = (0.003, 0.1916581, 0.2)
                double3 xformOp:translate = (0.13587141453671342, 0, 0.1)
                uniform token[] xformOpOrder = ["xformOp:translate", "xformOp:scale"]
            }

            def Mesh "FrontPrint" (
                prepend apiSchemas = ["MaterialBindingAPI"]
            )
            {
                uniform bool doubleSided = 1
                float3[] extent = [(-0.13587141, -0.097429045, 0), (0.13587141, -0.097429045, 0.2)]
                int[] faceVertexCounts = [4]
                int[] faceVertexIndices = [0, 1, 2, 3]
                rel material:binding = </World/Materials/BoxPrint>
                point3f[] points = [(-0.13587141, -0.097429045, 0), (0.13587141, -0.097429045, 0), (0.13587141, -0.097429045, 0.2), (-0.13587141, -0.097429045, 0.2)]
                texCoord2f[] primvars:st = [(0, 0), (1, 0), (1, 1), (0, 1)] (
                    interpolation = "faceVarying"
                )
                uniform token subdivisionScheme = "none"
            }

            def Mesh "TornFront" (
                prepend apiSchemas = ["MaterialBindingAPI"]
            )
            {
                uniform bool doubleSided = 1
                float3[] extent = [(-0.13587141, -0.09582905, 0.198), (0.13587141, -0.09582905, 0.20893468)]
                int[] faceVertexCounts = [4, 4, 4, 4, 4, 4, 4, 4, 4, 4, 4, 4, 4, 4, 4, 4, 4, 4, 4, 4]
                int[] faceVertexIndices = [0, 1, 22, 21, 1, 2, 23, 22, 2, 3, 24, 23, 3, 4, 25, 24, 4, 5, 26, 25, 5, 6, 27, 26, 6, 7, 28, 27, 7, 8, 29, 28, 8, 9, 30, 29, 9, 10, 31, 30, 10, 11, 32, 31, 11, 12, 33, 32, 12, 13, 34, 33, 13, 14, 35, 34, 14, 15, 36, 35, 15, 16, 37, 36, 16, 17, 38, 37, 17, 18, 39, 38, 18, 19, 40, 39, 19, 20, 41, 40]
                rel material:binding = </World/Materials/Cardboard>
                point3f[] points = [(-0.13587141, -0.09582905, 0.20703006), (-0.12228427, -0.09582905, 0.20545262), (-0.10869713, -0.09582905, 0.2063882), (-0.09510999, -0.09582905, 0.20080188), (-0.08152285, -0.09582905, 0.20567644), (-0.067935705, -0.09582905, 0.2088273), (-0.054348566, -0.09582905, 0.20381065), (-0.040761426, -0.09582905, 0.20101163), (-0.027174283, -0.09582905, 0.2086244), (-0.013587141, -0.09582905, 0.20608383), (0, -0.09582905, 0.20177473), (0.013587141, -0.09582905, 0.20604853), (0.027174283, -0.09582905, 0.20893468), (0.040761426, -0.09582905, 0.20188537), (0.054348566, -0.09582905, 0.20768474), (0.067935705, -0.09582905, 0.2062902), (0.08152285, -0.09582905, 0.20199507), (0.09510999, -0.09582905, 0.20166294), (0.10869713, -0.09582905, 0.20858741), (0.12228427, -0.09582905, 0.20306394), (0.13587141, -0.09582905, 0.20397255), (-0.13587141, -0.09582905, 0.198), (-0.12228427, -0.09582905, 0.198), (-0.10869713, -0.09582905, 0.198), (-0.09510999, -0.09582905, 0.198), (-0.08152285, -0.09582905, 0.198), (-0.067935705, -0.09582905, 0.198), (-0.054348566, -0.09582905, 0.198), (-0.040761426, -0.09582905, 0.198), (-0.027174283, -0.09582905, 0.198), (-0.013587141, -0.09582905, 0.198), (0, -0.09582905, 0.198), (0.013587141, -0.09582905, 0.198), (0.027174283, -0.09582905, 0.198), (0.040761426, -0.09582905, 0.198), (0.054348566, -0.09582905, 0.198), (0.067935705, -0.09582905, 0.198), (0.08152285, -0.09582905, 0.198), (0.09510999, -0.09582905, 0.198), (0.10869713, -0.09582905, 0.198), (0.12228427, -0.09582905, 0.198), (0.13587141, -0.09582905, 0.198)]
                uniform token subdivisionScheme = "none"
            }

            def Mesh "TornRear" (
                prepend apiSchemas = ["MaterialBindingAPI"]
            )
            {
                uniform bool doubleSided = 1
                float3[] extent = [(-0.13587141, 0.09582905, 0.198), (0.13587141, 0.09582905, 0.20893468)]
                int[] faceVertexCounts = [4, 4, 4, 4, 4, 4, 4, 4, 4, 4, 4, 4, 4, 4, 4, 4, 4, 4, 4, 4]
                int[] faceVertexIndices = [0, 1, 22, 21, 1, 2, 23, 22, 2, 3, 24, 23, 3, 4, 25, 24, 4, 5, 26, 25, 5, 6, 27, 26, 6, 7, 28, 27, 7, 8, 29, 28, 8, 9, 30, 29, 9, 10, 31, 30, 10, 11, 32, 31, 11, 12, 33, 32, 12, 13, 34, 33, 13, 14, 35, 34, 14, 15, 36, 35, 15, 16, 37, 36, 16, 17, 38, 37, 17, 18, 39, 38, 18, 19, 40, 39, 19, 20, 41, 40]
                rel material:binding = </World/Materials/Cardboard>
                point3f[] points = [(-0.13587141, 0.09582905, 0.20703006), (-0.12228427, 0.09582905, 0.20545262), (-0.10869713, 0.09582905, 0.2063882), (-0.09510999, 0.09582905, 0.20080188), (-0.08152285, 0.09582905, 0.20567644), (-0.067935705, 0.09582905, 0.2088273), (-0.054348566, 0.09582905, 0.20381065), (-0.040761426, 0.09582905, 0.20101163), (-0.027174283, 0.09582905, 0.2086244), (-0.013587141, 0.09582905, 0.20608383), (0, 0.09582905, 0.20177473), (0.013587141, 0.09582905, 0.20604853), (0.027174283, 0.09582905, 0.20893468), (0.040761426, 0.09582905, 0.20188537), (0.054348566, 0.09582905, 0.20768474), (0.067935705, 0.09582905, 0.2062902), (0.08152285, 0.09582905, 0.20199507), (0.09510999, 0.09582905, 0.20166294), (0.10869713, 0.09582905, 0.20858741), (0.12228427, 0.09582905, 0.20306394), (0.13587141, 0.09582905, 0.20397255), (-0.13587141, 0.09582905, 0.198), (-0.12228427, 0.09582905, 0.198), (-0.10869713, 0.09582905, 0.198), (-0.09510999, 0.09582905, 0.198), (-0.08152285, 0.09582905, 0.198), (-0.067935705, 0.09582905, 0.198), (-0.054348566, 0.09582905, 0.198), (-0.040761426, 0.09582905, 0.198), (-0.027174283, 0.09582905, 0.198), (-0.013587141, 0.09582905, 0.198), (0, 0.09582905, 0.198), (0.013587141, 0.09582905, 0.198), (0.027174283, 0.09582905, 0.198), (0.040761426, 0.09582905, 0.198), (0.054348566, 0.09582905, 0.198), (0.067935705, 0.09582905, 0.198), (0.08152285, 0.09582905, 0.198), (0.09510999, 0.09582905, 0.198), (0.10869713, 0.09582905, 0.198), (0.12228427, 0.09582905, 0.198), (0.13587141, 0.09582905, 0.198)]
                uniform token subdivisionScheme = "none"
            }
        }
    }

    over "Robot"
    {
        over "base_link"
        {
            quatf xformOp:orient = (1, 0, 0, 0)
            double3 xformOp:translate = (0, 0, 0)
        }

        over "shoulder_link"
        {
            quatf xformOp:orient = (-5.037508e-8, 0.037964843, 0.9992791, 0.0000013258383)
            double3 xformOp:translate = (0.0388353, -8.97657e-9, 0.0624)
        }

        over "upper_arm_link"
        {
            quatf xformOp:orient = (-0.7015694, 0.70624685, 0.034843683, 0.08832734)
            double3 xformOp:translate = (0.06776004239142733, -0.020531801811595682, 0.11659994551703125)
        }

        over "lower_arm_link"
        {
            quatf xformOp:orient = (0.118723474, -0.065493524, 0.7040662, 0.69706964)
            double3 xformOp:translate = (-0.04762839608045279, -0.011751846933547408, 0.12462649890940142)
        }

        over "wrist_link"
        {
            quatf xformOp:orient = (0.19472164, -0.14258511, 0.6925808, 0.6797682)
            double3 xformOp:translate = (0.0809711700140157, -0.021537171672806013, 0.16451946846622523)
        }

        over "gripper_link"
        {
            quatf xformOp:orient = (0.6433687, -0.19026692, -0.14411509, 0.7273967)
            double3 xformOp:translate = (0.11058697256917085, -0.005638190480591797, 0.11038125057845503)
        }

        over "moving_jaw_so101_v1_link"
        {
            quatf xformOp:orient = (0.5689715, 0.33372742, 0.40173, 0.6352247)
            double3 xformOp:translate = (0.10282316454304964, 0.011097713999825193, 0.07925774200124135)
        }

        over "joints"
        {
            over "shoulder_pan"
            {
                float drive:angular:physics:targetPosition = 4.3516483
                float state:angular:physics:position = 4.3516483
            }

            over "shoulder_lift"
            {
                float drive:angular:physics:targetPosition = -100.000046
                float state:angular:physics:position = -100.000046
            }

            over "elbow_flex"
            {
                float drive:angular:physics:targetPosition = 85.01981
                float state:angular:physics:position = 85.01981
            }

            over "wrist_flex"
            {
                float drive:angular:physics:targetPosition = 77.36267
                float state:angular:physics:position = 77.36267
            }

            over "wrist_roll"
            {
                float drive:angular:physics:targetPosition = 104.15609
                float state:angular:physics:position = 104.15609
            }

            over "gripper"
            {
                float drive:angular:physics:targetPosition = 3.7533424
                float state:angular:physics:position = 3.7533424
            }
        }
    }
}
